<mxfile host="app.diagrams.net" modified="2022-11-23T16:24:00.522Z" agent="5.0 (Windows)" etag="pqM8Ulll0cPjs4u1QFdG" version="20.6.0" type="github">
  <diagram id="ntwZN9jLrbFkZiTQ13Ez" name="Page-1">
    <mxGraphModel dx="3384" dy="890" grid="1" gridSize="10" guides="1" tooltips="1" connect="1" arrows="1" fold="1" page="1" pageScale="1" pageWidth="827" pageHeight="1169" math="0" shadow="0">
      <root>
        <mxCell id="0" />
        <mxCell id="1" parent="0" />
        <mxCell id="YvM7rf__rvNZfSff4V5Y-11" value="DIPLOME" style="swimlane;fontStyle=0;childLayout=stackLayout;horizontal=1;startSize=30;horizontalStack=0;resizeParent=1;resizeParentMax=0;resizeLast=0;collapsible=1;marginBottom=0;" parent="1" vertex="1">
          <mxGeometry x="-1480" y="160" width="140" height="120" as="geometry" />
        </mxCell>
        <mxCell id="YvM7rf__rvNZfSff4V5Y-12" value="IdD" style="text;strokeColor=none;fillColor=none;align=left;verticalAlign=middle;spacingLeft=4;spacingRight=4;overflow=hidden;points=[[0,0.5],[1,0.5]];portConstraint=eastwest;rotatable=0;fontStyle=5" parent="YvM7rf__rvNZfSff4V5Y-11" vertex="1">
          <mxGeometry y="30" width="140" height="30" as="geometry" />
        </mxCell>
        <mxCell id="YvM7rf__rvNZfSff4V5Y-13" value="Intitulé" style="text;strokeColor=none;fillColor=none;align=left;verticalAlign=middle;spacingLeft=4;spacingRight=4;overflow=hidden;points=[[0,0.5],[1,0.5]];portConstraint=eastwest;rotatable=0;" parent="YvM7rf__rvNZfSff4V5Y-11" vertex="1">
          <mxGeometry y="60" width="140" height="30" as="geometry" />
        </mxCell>
        <mxCell id="YvM7rf__rvNZfSff4V5Y-14" value="Item 3" style="text;strokeColor=none;fillColor=none;align=left;verticalAlign=middle;spacingLeft=4;spacingRight=4;overflow=hidden;points=[[0,0.5],[1,0.5]];portConstraint=eastwest;rotatable=0;" parent="YvM7rf__rvNZfSff4V5Y-11" vertex="1">
          <mxGeometry y="90" width="140" height="30" as="geometry" />
        </mxCell>
        <mxCell id="YvM7rf__rvNZfSff4V5Y-35" value="&lt;div&gt;&lt;br&gt;&lt;/div&gt;&lt;div&gt;preparé&lt;br&gt;&lt;/div&gt;&lt;div&gt;&lt;br&gt;&lt;/div&gt;&lt;div&gt;&lt;br&gt;&lt;/div&gt;" style="shape=ellipse;container=1;horizontal=1;horizontalStack=0;resizeParent=1;resizeParentMax=0;resizeLast=0;html=1;dashed=0;collapsible=0;" parent="1" vertex="1">
          <mxGeometry x="-1190" y="195" width="70" height="50" as="geometry" />
        </mxCell>
        <mxCell id="YvM7rf__rvNZfSff4V5Y-36" value="" style="line;strokeWidth=1;fillColor=none;rotatable=0;labelPosition=right;points=[];portConstraint=eastwest;dashed=0;resizeWidth=1;" parent="YvM7rf__rvNZfSff4V5Y-35" vertex="1">
          <mxGeometry y="22.916666666666668" width="70" height="4.166666666666667" as="geometry" />
        </mxCell>
        <mxCell id="YvM7rf__rvNZfSff4V5Y-37" value="" style="endArrow=none;html=1;rounded=0;entryX=0;entryY=0.5;entryDx=0;entryDy=0;exitX=1;exitY=0.5;exitDx=0;exitDy=0;" parent="1" source="YvM7rf__rvNZfSff4V5Y-11" target="YvM7rf__rvNZfSff4V5Y-35" edge="1">
          <mxGeometry width="50" height="50" relative="1" as="geometry">
            <mxPoint x="-1300" y="225" as="sourcePoint" />
            <mxPoint x="-1420" y="360" as="targetPoint" />
          </mxGeometry>
        </mxCell>
        <mxCell id="YvM7rf__rvNZfSff4V5Y-38" value="1,N" style="edgeLabel;html=1;align=center;verticalAlign=middle;resizable=0;points=[];" parent="YvM7rf__rvNZfSff4V5Y-37" vertex="1" connectable="0">
          <mxGeometry x="-0.4667" y="1" relative="1" as="geometry">
            <mxPoint as="offset" />
          </mxGeometry>
        </mxCell>
        <mxCell id="YvM7rf__rvNZfSff4V5Y-39" value="" style="endArrow=none;html=1;rounded=0;entryX=1;entryY=0.5;entryDx=0;entryDy=0;exitX=0;exitY=0.5;exitDx=0;exitDy=0;" parent="1" source="YvM7rf__rvNZfSff4V5Y-42" target="YvM7rf__rvNZfSff4V5Y-35" edge="1">
          <mxGeometry width="50" height="50" relative="1" as="geometry">
            <mxPoint x="-1040" y="210" as="sourcePoint" />
            <mxPoint x="-1130" y="280" as="targetPoint" />
          </mxGeometry>
        </mxCell>
        <mxCell id="YvM7rf__rvNZfSff4V5Y-40" value="1,1" style="edgeLabel;html=1;align=center;verticalAlign=middle;resizable=0;points=[];" parent="YvM7rf__rvNZfSff4V5Y-39" vertex="1" connectable="0">
          <mxGeometry x="-0.4667" relative="1" as="geometry">
            <mxPoint as="offset" />
          </mxGeometry>
        </mxCell>
        <mxCell id="YvM7rf__rvNZfSff4V5Y-42" value="CLASSE" style="swimlane;fontStyle=0;childLayout=stackLayout;horizontal=1;startSize=30;horizontalStack=0;resizeParent=1;resizeParentMax=0;resizeLast=0;collapsible=1;marginBottom=0;rounded=0;" parent="1" vertex="1">
          <mxGeometry x="-960" y="160" width="140" height="120" as="geometry" />
        </mxCell>
        <mxCell id="YvM7rf__rvNZfSff4V5Y-43" value="IdCL" style="text;strokeColor=none;fillColor=none;align=left;verticalAlign=middle;spacingLeft=4;spacingRight=4;overflow=hidden;points=[[0,0.5],[1,0.5]];portConstraint=eastwest;rotatable=0;rounded=1;fontStyle=5" parent="YvM7rf__rvNZfSff4V5Y-42" vertex="1">
          <mxGeometry y="30" width="140" height="30" as="geometry" />
        </mxCell>
        <mxCell id="YvM7rf__rvNZfSff4V5Y-44" value="Intitulé" style="text;strokeColor=none;fillColor=none;align=left;verticalAlign=middle;spacingLeft=4;spacingRight=4;overflow=hidden;points=[[0,0.5],[1,0.5]];portConstraint=eastwest;rotatable=0;rounded=1;" parent="YvM7rf__rvNZfSff4V5Y-42" vertex="1">
          <mxGeometry y="60" width="140" height="30" as="geometry" />
        </mxCell>
        <mxCell id="YvM7rf__rvNZfSff4V5Y-45" value="NbEleve" style="text;strokeColor=none;fillColor=none;align=left;verticalAlign=middle;spacingLeft=4;spacingRight=4;overflow=hidden;points=[[0,0.5],[1,0.5]];portConstraint=eastwest;rotatable=0;rounded=1;" parent="YvM7rf__rvNZfSff4V5Y-42" vertex="1">
          <mxGeometry y="90" width="140" height="30" as="geometry" />
        </mxCell>
        <mxCell id="YvM7rf__rvNZfSff4V5Y-46" value="ETUDIANT" style="swimlane;fontStyle=0;childLayout=stackLayout;horizontal=1;startSize=30;horizontalStack=0;resizeParent=1;resizeParentMax=0;resizeLast=0;collapsible=1;marginBottom=0;rounded=0;" parent="1" vertex="1">
          <mxGeometry x="-480" y="130" width="140" height="180" as="geometry" />
        </mxCell>
        <mxCell id="YvM7rf__rvNZfSff4V5Y-47" value="IdE" style="text;strokeColor=none;fillColor=none;align=left;verticalAlign=middle;spacingLeft=4;spacingRight=4;overflow=hidden;points=[[0,0.5],[1,0.5]];portConstraint=eastwest;rotatable=0;rounded=1;fontStyle=5" parent="YvM7rf__rvNZfSff4V5Y-46" vertex="1">
          <mxGeometry y="30" width="140" height="30" as="geometry" />
        </mxCell>
        <mxCell id="YvM7rf__rvNZfSff4V5Y-48" value="Nom" style="text;strokeColor=none;fillColor=none;align=left;verticalAlign=middle;spacingLeft=4;spacingRight=4;overflow=hidden;points=[[0,0.5],[1,0.5]];portConstraint=eastwest;rotatable=0;rounded=1;" parent="YvM7rf__rvNZfSff4V5Y-46" vertex="1">
          <mxGeometry y="60" width="140" height="30" as="geometry" />
        </mxCell>
        <mxCell id="YvM7rf__rvNZfSff4V5Y-49" value="Prenom" style="text;strokeColor=none;fillColor=none;align=left;verticalAlign=middle;spacingLeft=4;spacingRight=4;overflow=hidden;points=[[0,0.5],[1,0.5]];portConstraint=eastwest;rotatable=0;rounded=1;" parent="YvM7rf__rvNZfSff4V5Y-46" vertex="1">
          <mxGeometry y="90" width="140" height="30" as="geometry" />
        </mxCell>
        <mxCell id="YvM7rf__rvNZfSff4V5Y-52" value="Email    " style="text;strokeColor=none;fillColor=none;align=left;verticalAlign=middle;spacingLeft=4;spacingRight=4;overflow=hidden;points=[[0,0.5],[1,0.5]];portConstraint=eastwest;rotatable=0;rounded=1;" parent="YvM7rf__rvNZfSff4V5Y-46" vertex="1">
          <mxGeometry y="120" width="140" height="30" as="geometry" />
        </mxCell>
        <mxCell id="YvM7rf__rvNZfSff4V5Y-51" value="Tel" style="text;strokeColor=none;fillColor=none;align=left;verticalAlign=middle;spacingLeft=4;spacingRight=4;overflow=hidden;points=[[0,0.5],[1,0.5]];portConstraint=eastwest;rotatable=0;rounded=1;" parent="YvM7rf__rvNZfSff4V5Y-46" vertex="1">
          <mxGeometry y="150" width="140" height="30" as="geometry" />
        </mxCell>
        <mxCell id="YvM7rf__rvNZfSff4V5Y-53" value="&lt;div&gt;&lt;br&gt;&lt;/div&gt;&lt;div&gt;contient&lt;br&gt;&lt;/div&gt;&lt;div&gt;&lt;br&gt;&lt;/div&gt;&lt;div&gt;&lt;br&gt;&lt;/div&gt;" style="shape=ellipse;container=1;horizontal=1;horizontalStack=0;resizeParent=1;resizeParentMax=0;resizeLast=0;html=1;dashed=0;collapsible=0;" parent="1" vertex="1">
          <mxGeometry x="-706" y="195" width="70" height="50" as="geometry" />
        </mxCell>
        <mxCell id="YvM7rf__rvNZfSff4V5Y-54" value="" style="line;strokeWidth=1;fillColor=none;rotatable=0;labelPosition=right;points=[];portConstraint=eastwest;dashed=0;resizeWidth=1;" parent="YvM7rf__rvNZfSff4V5Y-53" vertex="1">
          <mxGeometry y="22.916666666666668" width="70" height="4.166666666666667" as="geometry" />
        </mxCell>
        <mxCell id="YvM7rf__rvNZfSff4V5Y-55" value="" style="endArrow=none;html=1;rounded=0;entryX=0;entryY=0.5;entryDx=0;entryDy=0;exitX=1;exitY=0.5;exitDx=0;exitDy=0;" parent="1" source="YvM7rf__rvNZfSff4V5Y-42" target="YvM7rf__rvNZfSff4V5Y-53" edge="1">
          <mxGeometry width="50" height="50" relative="1" as="geometry">
            <mxPoint x="-790" y="235" as="sourcePoint" />
            <mxPoint x="-1040" y="560" as="targetPoint" />
          </mxGeometry>
        </mxCell>
        <mxCell id="YvM7rf__rvNZfSff4V5Y-56" value="1,N" style="edgeLabel;html=1;align=center;verticalAlign=middle;resizable=0;points=[];" parent="YvM7rf__rvNZfSff4V5Y-55" vertex="1" connectable="0">
          <mxGeometry x="-0.4667" y="1" relative="1" as="geometry">
            <mxPoint as="offset" />
          </mxGeometry>
        </mxCell>
        <mxCell id="YvM7rf__rvNZfSff4V5Y-57" value="" style="endArrow=none;html=1;rounded=0;entryX=1;entryY=0.5;entryDx=0;entryDy=0;" parent="1" source="YvM7rf__rvNZfSff4V5Y-46" target="YvM7rf__rvNZfSff4V5Y-53" edge="1">
          <mxGeometry width="50" height="50" relative="1" as="geometry">
            <mxPoint x="-520" y="220" as="sourcePoint" />
            <mxPoint x="-940" y="480" as="targetPoint" />
          </mxGeometry>
        </mxCell>
        <mxCell id="YvM7rf__rvNZfSff4V5Y-58" value="1,1" style="edgeLabel;html=1;align=center;verticalAlign=middle;resizable=0;points=[];" parent="YvM7rf__rvNZfSff4V5Y-57" vertex="1" connectable="0">
          <mxGeometry x="-0.4667" relative="1" as="geometry">
            <mxPoint as="offset" />
          </mxGeometry>
        </mxCell>
        <mxCell id="YvM7rf__rvNZfSff4V5Y-59" value="PROFESSEUR" style="swimlane;fontStyle=0;childLayout=stackLayout;horizontal=1;startSize=30;horizontalStack=0;resizeParent=1;resizeParentMax=0;resizeLast=0;collapsible=1;marginBottom=0;rounded=0;" parent="1" vertex="1">
          <mxGeometry x="-1480" y="540" width="140" height="180" as="geometry" />
        </mxCell>
        <mxCell id="YvM7rf__rvNZfSff4V5Y-60" value="IdP" style="text;strokeColor=none;fillColor=none;align=left;verticalAlign=middle;spacingLeft=4;spacingRight=4;overflow=hidden;points=[[0,0.5],[1,0.5]];portConstraint=eastwest;rotatable=0;rounded=0;fontStyle=5" parent="YvM7rf__rvNZfSff4V5Y-59" vertex="1">
          <mxGeometry y="30" width="140" height="30" as="geometry" />
        </mxCell>
        <mxCell id="YvM7rf__rvNZfSff4V5Y-61" value="Nom    " style="text;strokeColor=none;fillColor=none;align=left;verticalAlign=middle;spacingLeft=4;spacingRight=4;overflow=hidden;points=[[0,0.5],[1,0.5]];portConstraint=eastwest;rotatable=0;rounded=0;" parent="YvM7rf__rvNZfSff4V5Y-59" vertex="1">
          <mxGeometry y="60" width="140" height="30" as="geometry" />
        </mxCell>
        <mxCell id="YvM7rf__rvNZfSff4V5Y-62" value="Prenom" style="text;strokeColor=none;fillColor=none;align=left;verticalAlign=middle;spacingLeft=4;spacingRight=4;overflow=hidden;points=[[0,0.5],[1,0.5]];portConstraint=eastwest;rotatable=0;rounded=0;" parent="YvM7rf__rvNZfSff4V5Y-59" vertex="1">
          <mxGeometry y="90" width="140" height="30" as="geometry" />
        </mxCell>
        <mxCell id="YvM7rf__rvNZfSff4V5Y-63" value="Email    " style="text;strokeColor=none;fillColor=none;align=left;verticalAlign=middle;spacingLeft=4;spacingRight=4;overflow=hidden;points=[[0,0.5],[1,0.5]];portConstraint=eastwest;rotatable=0;rounded=0;" parent="YvM7rf__rvNZfSff4V5Y-59" vertex="1">
          <mxGeometry y="120" width="140" height="30" as="geometry" />
        </mxCell>
        <mxCell id="YvM7rf__rvNZfSff4V5Y-64" value="Tel" style="text;strokeColor=none;fillColor=none;align=left;verticalAlign=middle;spacingLeft=4;spacingRight=4;overflow=hidden;points=[[0,0.5],[1,0.5]];portConstraint=eastwest;rotatable=0;rounded=0;" parent="YvM7rf__rvNZfSff4V5Y-59" vertex="1">
          <mxGeometry y="150" width="140" height="30" as="geometry" />
        </mxCell>
        <mxCell id="YvM7rf__rvNZfSff4V5Y-71" value="" style="endArrow=none;html=1;rounded=0;exitX=1;exitY=0.5;exitDx=0;exitDy=0;" parent="1" source="YvM7rf__rvNZfSff4V5Y-59" target="YvM7rf__rvNZfSff4V5Y-122" edge="1">
          <mxGeometry width="50" height="50" relative="1" as="geometry">
            <mxPoint x="-1320" y="575" as="sourcePoint" />
            <mxPoint x="-1270" y="550" as="targetPoint" />
          </mxGeometry>
        </mxCell>
        <mxCell id="YvM7rf__rvNZfSff4V5Y-72" value="1,N" style="edgeLabel;html=1;align=center;verticalAlign=middle;resizable=0;points=[];" parent="YvM7rf__rvNZfSff4V5Y-71" vertex="1" connectable="0">
          <mxGeometry x="-0.4667" y="1" relative="1" as="geometry">
            <mxPoint as="offset" />
          </mxGeometry>
        </mxCell>
        <mxCell id="YvM7rf__rvNZfSff4V5Y-79" value="" style="endArrow=none;html=1;rounded=0;" parent="1" source="YvM7rf__rvNZfSff4V5Y-42" target="YvM7rf__rvNZfSff4V5Y-122" edge="1">
          <mxGeometry width="50" height="50" relative="1" as="geometry">
            <mxPoint x="-660" y="445" as="sourcePoint" />
            <mxPoint x="-909.9999999999998" y="364.9999999999999" as="targetPoint" />
          </mxGeometry>
        </mxCell>
        <mxCell id="YvM7rf__rvNZfSff4V5Y-80" value="1,N" style="edgeLabel;html=1;align=center;verticalAlign=middle;resizable=0;points=[];" parent="YvM7rf__rvNZfSff4V5Y-79" vertex="1" connectable="0">
          <mxGeometry x="-0.4667" relative="1" as="geometry">
            <mxPoint as="offset" />
          </mxGeometry>
        </mxCell>
        <mxCell id="YvM7rf__rvNZfSff4V5Y-81" value="TRANSPORT" style="swimlane;fontStyle=0;childLayout=stackLayout;horizontal=1;startSize=30;horizontalStack=0;resizeParent=1;resizeParentMax=0;resizeLast=0;collapsible=1;marginBottom=0;rounded=0;" parent="1" vertex="1">
          <mxGeometry x="-970" y="570" width="140" height="150" as="geometry" />
        </mxCell>
        <mxCell id="YvM7rf__rvNZfSff4V5Y-82" value="IdTP" style="text;strokeColor=none;fillColor=none;align=left;verticalAlign=middle;spacingLeft=4;spacingRight=4;overflow=hidden;points=[[0,0.5],[1,0.5]];portConstraint=eastwest;rotatable=0;rounded=0;fontStyle=5" parent="YvM7rf__rvNZfSff4V5Y-81" vertex="1">
          <mxGeometry y="30" width="140" height="30" as="geometry" />
        </mxCell>
        <mxCell id="YvM7rf__rvNZfSff4V5Y-83" value="Nom" style="text;strokeColor=none;fillColor=none;align=left;verticalAlign=middle;spacingLeft=4;spacingRight=4;overflow=hidden;points=[[0,0.5],[1,0.5]];portConstraint=eastwest;rotatable=0;rounded=0;" parent="YvM7rf__rvNZfSff4V5Y-81" vertex="1">
          <mxGeometry y="60" width="140" height="30" as="geometry" />
        </mxCell>
        <mxCell id="YvM7rf__rvNZfSff4V5Y-84" value="Type" style="text;strokeColor=none;fillColor=none;align=left;verticalAlign=middle;spacingLeft=4;spacingRight=4;overflow=hidden;points=[[0,0.5],[1,0.5]];portConstraint=eastwest;rotatable=0;rounded=0;" parent="YvM7rf__rvNZfSff4V5Y-81" vertex="1">
          <mxGeometry y="90" width="140" height="30" as="geometry" />
        </mxCell>
        <mxCell id="YvM7rf__rvNZfSff4V5Y-85" value="Reseau" style="text;strokeColor=none;fillColor=none;align=left;verticalAlign=middle;spacingLeft=4;spacingRight=4;overflow=hidden;points=[[0,0.5],[1,0.5]];portConstraint=eastwest;rotatable=0;rounded=0;" parent="YvM7rf__rvNZfSff4V5Y-81" vertex="1">
          <mxGeometry y="120" width="140" height="30" as="geometry" />
        </mxCell>
        <mxCell id="YvM7rf__rvNZfSff4V5Y-87" value="SEGMENT" style="swimlane;fontStyle=0;childLayout=stackLayout;horizontal=1;startSize=30;horizontalStack=0;resizeParent=1;resizeParentMax=0;resizeLast=0;collapsible=1;marginBottom=0;rounded=0;" parent="1" vertex="1">
          <mxGeometry x="-480" y="585" width="140" height="120" as="geometry" />
        </mxCell>
        <mxCell id="YvM7rf__rvNZfSff4V5Y-88" value="IdS" style="text;strokeColor=none;fillColor=none;align=left;verticalAlign=middle;spacingLeft=4;spacingRight=4;overflow=hidden;points=[[0,0.5],[1,0.5]];portConstraint=eastwest;rotatable=0;rounded=0;fontStyle=5" parent="YvM7rf__rvNZfSff4V5Y-87" vertex="1">
          <mxGeometry y="30" width="140" height="30" as="geometry" />
        </mxCell>
        <mxCell id="YvM7rf__rvNZfSff4V5Y-89" value="Arret1" style="text;strokeColor=none;fillColor=none;align=left;verticalAlign=middle;spacingLeft=4;spacingRight=4;overflow=hidden;points=[[0,0.5],[1,0.5]];portConstraint=eastwest;rotatable=0;rounded=0;" parent="YvM7rf__rvNZfSff4V5Y-87" vertex="1">
          <mxGeometry y="60" width="140" height="30" as="geometry" />
        </mxCell>
        <mxCell id="YvM7rf__rvNZfSff4V5Y-90" value="Arret2" style="text;strokeColor=none;fillColor=none;align=left;verticalAlign=middle;spacingLeft=4;spacingRight=4;overflow=hidden;points=[[0,0.5],[1,0.5]];portConstraint=eastwest;rotatable=0;rounded=0;" parent="YvM7rf__rvNZfSff4V5Y-87" vertex="1">
          <mxGeometry y="90" width="140" height="30" as="geometry" />
        </mxCell>
        <mxCell id="YvM7rf__rvNZfSff4V5Y-91" value="&lt;div&gt;de&lt;br&gt;&lt;/div&gt;&lt;div&gt;&lt;br&gt;&lt;/div&gt;" style="shape=ellipse;container=1;horizontal=1;horizontalStack=0;resizeParent=1;resizeParentMax=0;resizeLast=0;html=1;dashed=0;collapsible=0;" parent="1" vertex="1">
          <mxGeometry x="-690" y="620" width="70" height="50" as="geometry" />
        </mxCell>
        <mxCell id="YvM7rf__rvNZfSff4V5Y-92" value="" style="line;strokeWidth=1;fillColor=none;rotatable=0;labelPosition=right;points=[];portConstraint=eastwest;dashed=0;resizeWidth=1;" parent="YvM7rf__rvNZfSff4V5Y-91" vertex="1">
          <mxGeometry y="22.916666666666668" width="70" height="4.166666666666667" as="geometry" />
        </mxCell>
        <mxCell id="YvM7rf__rvNZfSff4V5Y-93" value="" style="endArrow=none;html=1;rounded=0;entryX=1;entryY=0.5;entryDx=0;entryDy=0;" parent="1" source="YvM7rf__rvNZfSff4V5Y-87" target="YvM7rf__rvNZfSff4V5Y-91" edge="1">
          <mxGeometry width="50" height="50" relative="1" as="geometry">
            <mxPoint x="-340" y="405" as="sourcePoint" />
            <mxPoint x="-650" y="600" as="targetPoint" />
          </mxGeometry>
        </mxCell>
        <mxCell id="YvM7rf__rvNZfSff4V5Y-94" value="1,1" style="edgeLabel;html=1;align=center;verticalAlign=middle;resizable=0;points=[];" parent="YvM7rf__rvNZfSff4V5Y-93" vertex="1" connectable="0">
          <mxGeometry x="-0.4667" y="1" relative="1" as="geometry">
            <mxPoint as="offset" />
          </mxGeometry>
        </mxCell>
        <mxCell id="YvM7rf__rvNZfSff4V5Y-95" value="" style="endArrow=none;html=1;rounded=0;entryX=0;entryY=0.5;entryDx=0;entryDy=0;" parent="1" source="YvM7rf__rvNZfSff4V5Y-81" target="YvM7rf__rvNZfSff4V5Y-91" edge="1">
          <mxGeometry width="50" height="50" relative="1" as="geometry">
            <mxPoint x="-890" y="415" as="sourcePoint" />
            <mxPoint x="-970" y="470" as="targetPoint" />
          </mxGeometry>
        </mxCell>
        <mxCell id="YvM7rf__rvNZfSff4V5Y-96" value="1,N" style="edgeLabel;html=1;align=center;verticalAlign=middle;resizable=0;points=[];" parent="YvM7rf__rvNZfSff4V5Y-95" vertex="1" connectable="0">
          <mxGeometry x="-0.4667" relative="1" as="geometry">
            <mxPoint as="offset" />
          </mxGeometry>
        </mxCell>
        <mxCell id="YvM7rf__rvNZfSff4V5Y-101" value="TRAJET" style="rounded=1;swimlane;fontStyle=0;childLayout=stackLayout;horizontal=1;startSize=30;horizontalStack=0;resizeParent=1;resizeParentMax=0;resizeLast=0;collapsible=1;marginBottom=0;" parent="1" vertex="1">
          <mxGeometry x="-480" y="410" width="140" height="60" as="geometry" />
        </mxCell>
        <mxCell id="YvM7rf__rvNZfSff4V5Y-117" value="" style="endArrow=none;html=1;rounded=0;" parent="1" source="YvM7rf__rvNZfSff4V5Y-101" target="YvM7rf__rvNZfSff4V5Y-46" edge="1">
          <mxGeometry width="50" height="50" relative="1" as="geometry">
            <mxPoint x="-730" y="420" as="sourcePoint" />
            <mxPoint x="-680" y="370" as="targetPoint" />
          </mxGeometry>
        </mxCell>
        <mxCell id="YvM7rf__rvNZfSff4V5Y-118" value="1,N" style="edgeLabel;html=1;align=center;verticalAlign=middle;resizable=0;points=[];" parent="YvM7rf__rvNZfSff4V5Y-117" vertex="1" connectable="0">
          <mxGeometry x="0.7778" relative="1" as="geometry">
            <mxPoint x="-32" y="43" as="offset" />
          </mxGeometry>
        </mxCell>
        <mxCell id="YvM7rf__rvNZfSff4V5Y-119" value="" style="endArrow=none;html=1;rounded=0;" parent="1" source="YvM7rf__rvNZfSff4V5Y-87" target="YvM7rf__rvNZfSff4V5Y-101" edge="1">
          <mxGeometry width="50" height="50" relative="1" as="geometry">
            <mxPoint x="-564.9999999999998" y="450" as="sourcePoint" />
            <mxPoint x="-467.4999999999998" y="320" as="targetPoint" />
          </mxGeometry>
        </mxCell>
        <mxCell id="YvM7rf__rvNZfSff4V5Y-120" value="1,N" style="edgeLabel;html=1;align=center;verticalAlign=middle;resizable=0;points=[];" parent="YvM7rf__rvNZfSff4V5Y-119" vertex="1" connectable="0">
          <mxGeometry x="0.7778" relative="1" as="geometry">
            <mxPoint x="2" y="65" as="offset" />
          </mxGeometry>
        </mxCell>
        <mxCell id="YvM7rf__rvNZfSff4V5Y-122" value="COURS" style="rounded=1;swimlane;fontStyle=0;childLayout=stackLayout;horizontal=1;startSize=30;horizontalStack=0;resizeParent=1;resizeParentMax=0;resizeLast=0;collapsible=1;marginBottom=0;" parent="1" vertex="1">
          <mxGeometry x="-1200" y="390" width="140" height="120" as="geometry" />
        </mxCell>
        <mxCell id="YvM7rf__rvNZfSff4V5Y-123" value="Intitulé" style="text;strokeColor=none;fillColor=none;align=left;verticalAlign=middle;spacingLeft=4;spacingRight=4;overflow=hidden;points=[[0,0.5],[1,0.5]];portConstraint=eastwest;rotatable=0;" parent="YvM7rf__rvNZfSff4V5Y-122" vertex="1">
          <mxGeometry y="30" width="140" height="30" as="geometry" />
        </mxCell>
        <mxCell id="YvM7rf__rvNZfSff4V5Y-124" value="HeureDebut    " style="text;strokeColor=none;fillColor=none;align=left;verticalAlign=middle;spacingLeft=4;spacingRight=4;overflow=hidden;points=[[0,0.5],[1,0.5]];portConstraint=eastwest;rotatable=0;" parent="YvM7rf__rvNZfSff4V5Y-122" vertex="1">
          <mxGeometry y="60" width="140" height="30" as="geometry" />
        </mxCell>
        <mxCell id="YvM7rf__rvNZfSff4V5Y-125" value="HeureFin" style="text;strokeColor=none;fillColor=none;align=left;verticalAlign=middle;spacingLeft=4;spacingRight=4;overflow=hidden;points=[[0,0.5],[1,0.5]];portConstraint=eastwest;rotatable=0;" parent="YvM7rf__rvNZfSff4V5Y-122" vertex="1">
          <mxGeometry y="90" width="140" height="30" as="geometry" />
        </mxCell>
        <mxCell id="u7hhSnUpqo7W0qD7Zvtp-2" value="V1" style="swimlane;whiteSpace=wrap;html=1;" vertex="1" parent="1">
          <mxGeometry x="-1520" y="80" width="1250" height="690" as="geometry" />
        </mxCell>
        <mxCell id="u7hhSnUpqo7W0qD7Zvtp-3" value="V2" style="swimlane;whiteSpace=wrap;html=1;" vertex="1" parent="1">
          <mxGeometry y="80" width="1620" height="680" as="geometry" />
        </mxCell>
        <mxCell id="u7hhSnUpqo7W0qD7Zvtp-20" value="Transport" style="swimlane;fontStyle=0;childLayout=stackLayout;horizontal=1;startSize=30;horizontalStack=0;resizeParent=1;resizeParentMax=0;resizeLast=0;collapsible=1;marginBottom=0;whiteSpace=wrap;html=1;" vertex="1" parent="u7hhSnUpqo7W0qD7Zvtp-3">
          <mxGeometry x="80" y="80" width="140" height="120" as="geometry" />
        </mxCell>
        <mxCell id="u7hhSnUpqo7W0qD7Zvtp-21" value="Item 1" style="text;strokeColor=none;fillColor=none;align=left;verticalAlign=middle;spacingLeft=4;spacingRight=4;overflow=hidden;points=[[0,0.5],[1,0.5]];portConstraint=eastwest;rotatable=0;whiteSpace=wrap;html=1;" vertex="1" parent="u7hhSnUpqo7W0qD7Zvtp-20">
          <mxGeometry y="30" width="140" height="30" as="geometry" />
        </mxCell>
        <mxCell id="u7hhSnUpqo7W0qD7Zvtp-22" value="Item 2" style="text;strokeColor=none;fillColor=none;align=left;verticalAlign=middle;spacingLeft=4;spacingRight=4;overflow=hidden;points=[[0,0.5],[1,0.5]];portConstraint=eastwest;rotatable=0;whiteSpace=wrap;html=1;" vertex="1" parent="u7hhSnUpqo7W0qD7Zvtp-20">
          <mxGeometry y="60" width="140" height="30" as="geometry" />
        </mxCell>
        <mxCell id="u7hhSnUpqo7W0qD7Zvtp-23" value="Item 3" style="text;strokeColor=none;fillColor=none;align=left;verticalAlign=middle;spacingLeft=4;spacingRight=4;overflow=hidden;points=[[0,0.5],[1,0.5]];portConstraint=eastwest;rotatable=0;whiteSpace=wrap;html=1;" vertex="1" parent="u7hhSnUpqo7W0qD7Zvtp-20">
          <mxGeometry y="90" width="140" height="30" as="geometry" />
        </mxCell>
        <mxCell id="u7hhSnUpqo7W0qD7Zvtp-44" style="edgeStyle=orthogonalEdgeStyle;rounded=0;orthogonalLoop=1;jettySize=auto;html=1;strokeColor=default;startArrow=none;startFill=0;endArrow=none;endFill=0;" edge="1" parent="u7hhSnUpqo7W0qD7Zvtp-3" source="u7hhSnUpqo7W0qD7Zvtp-28" target="u7hhSnUpqo7W0qD7Zvtp-20">
          <mxGeometry relative="1" as="geometry" />
        </mxCell>
        <mxCell id="u7hhSnUpqo7W0qD7Zvtp-46" value="Connaitre" style="edgeLabel;html=1;align=center;verticalAlign=middle;resizable=0;points=[];" vertex="1" connectable="0" parent="u7hhSnUpqo7W0qD7Zvtp-44">
          <mxGeometry x="0.1429" y="6" relative="1" as="geometry">
            <mxPoint as="offset" />
          </mxGeometry>
        </mxCell>
        <mxCell id="u7hhSnUpqo7W0qD7Zvtp-28" value="Perturbation" style="swimlane;fontStyle=0;childLayout=stackLayout;horizontal=1;startSize=30;horizontalStack=0;resizeParent=1;resizeParentMax=0;resizeLast=0;collapsible=1;marginBottom=0;whiteSpace=wrap;html=1;" vertex="1" parent="u7hhSnUpqo7W0qD7Zvtp-3">
          <mxGeometry x="80" y="480" width="140" height="120" as="geometry" />
        </mxCell>
        <mxCell id="u7hhSnUpqo7W0qD7Zvtp-29" value="Item 1" style="text;strokeColor=none;fillColor=none;align=left;verticalAlign=middle;spacingLeft=4;spacingRight=4;overflow=hidden;points=[[0,0.5],[1,0.5]];portConstraint=eastwest;rotatable=0;whiteSpace=wrap;html=1;" vertex="1" parent="u7hhSnUpqo7W0qD7Zvtp-28">
          <mxGeometry y="30" width="140" height="30" as="geometry" />
        </mxCell>
        <mxCell id="u7hhSnUpqo7W0qD7Zvtp-30" value="Item 2" style="text;strokeColor=none;fillColor=none;align=left;verticalAlign=middle;spacingLeft=4;spacingRight=4;overflow=hidden;points=[[0,0.5],[1,0.5]];portConstraint=eastwest;rotatable=0;whiteSpace=wrap;html=1;" vertex="1" parent="u7hhSnUpqo7W0qD7Zvtp-28">
          <mxGeometry y="60" width="140" height="30" as="geometry" />
        </mxCell>
        <mxCell id="u7hhSnUpqo7W0qD7Zvtp-31" value="Item 3" style="text;strokeColor=none;fillColor=none;align=left;verticalAlign=middle;spacingLeft=4;spacingRight=4;overflow=hidden;points=[[0,0.5],[1,0.5]];portConstraint=eastwest;rotatable=0;whiteSpace=wrap;html=1;" vertex="1" parent="u7hhSnUpqo7W0qD7Zvtp-28">
          <mxGeometry y="90" width="140" height="30" as="geometry" />
        </mxCell>
        <mxCell id="u7hhSnUpqo7W0qD7Zvtp-56" style="edgeStyle=orthogonalEdgeStyle;rounded=0;orthogonalLoop=1;jettySize=auto;html=1;strokeColor=default;startArrow=none;startFill=0;endArrow=none;endFill=0;" edge="1" parent="u7hhSnUpqo7W0qD7Zvtp-3" source="u7hhSnUpqo7W0qD7Zvtp-32" target="u7hhSnUpqo7W0qD7Zvtp-16">
          <mxGeometry relative="1" as="geometry">
            <Array as="points">
              <mxPoint x="1040" y="290" />
            </Array>
          </mxGeometry>
        </mxCell>
        <mxCell id="u7hhSnUpqo7W0qD7Zvtp-57" value="Discuter" style="edgeLabel;html=1;align=center;verticalAlign=middle;resizable=0;points=[];" vertex="1" connectable="0" parent="u7hhSnUpqo7W0qD7Zvtp-56">
          <mxGeometry x="0.1476" y="-5" relative="1" as="geometry">
            <mxPoint x="-1" as="offset" />
          </mxGeometry>
        </mxCell>
        <mxCell id="u7hhSnUpqo7W0qD7Zvtp-58" style="edgeStyle=orthogonalEdgeStyle;rounded=0;orthogonalLoop=1;jettySize=auto;html=1;entryX=0.5;entryY=0;entryDx=0;entryDy=0;strokeColor=default;startArrow=none;startFill=0;endArrow=none;endFill=0;" edge="1" parent="u7hhSnUpqo7W0qD7Zvtp-3" source="u7hhSnUpqo7W0qD7Zvtp-32" target="u7hhSnUpqo7W0qD7Zvtp-12">
          <mxGeometry relative="1" as="geometry">
            <Array as="points">
              <mxPoint x="1040" y="310" />
              <mxPoint x="1040" y="480" />
            </Array>
          </mxGeometry>
        </mxCell>
        <mxCell id="u7hhSnUpqo7W0qD7Zvtp-59" value="Discuter" style="edgeLabel;html=1;align=center;verticalAlign=middle;resizable=0;points=[];" vertex="1" connectable="0" parent="u7hhSnUpqo7W0qD7Zvtp-58">
          <mxGeometry x="-0.5027" y="-2" relative="1" as="geometry">
            <mxPoint x="-1" as="offset" />
          </mxGeometry>
        </mxCell>
        <mxCell id="u7hhSnUpqo7W0qD7Zvtp-32" value="Administrateur" style="swimlane;fontStyle=0;childLayout=stackLayout;horizontal=1;startSize=30;horizontalStack=0;resizeParent=1;resizeParentMax=0;resizeLast=0;collapsible=1;marginBottom=0;whiteSpace=wrap;html=1;" vertex="1" parent="u7hhSnUpqo7W0qD7Zvtp-3">
          <mxGeometry x="600" y="280" width="140" height="120" as="geometry" />
        </mxCell>
        <mxCell id="u7hhSnUpqo7W0qD7Zvtp-33" value="Item 1" style="text;strokeColor=none;fillColor=none;align=left;verticalAlign=middle;spacingLeft=4;spacingRight=4;overflow=hidden;points=[[0,0.5],[1,0.5]];portConstraint=eastwest;rotatable=0;whiteSpace=wrap;html=1;" vertex="1" parent="u7hhSnUpqo7W0qD7Zvtp-32">
          <mxGeometry y="30" width="140" height="30" as="geometry" />
        </mxCell>
        <mxCell id="u7hhSnUpqo7W0qD7Zvtp-34" value="Item 2" style="text;strokeColor=none;fillColor=none;align=left;verticalAlign=middle;spacingLeft=4;spacingRight=4;overflow=hidden;points=[[0,0.5],[1,0.5]];portConstraint=eastwest;rotatable=0;whiteSpace=wrap;html=1;" vertex="1" parent="u7hhSnUpqo7W0qD7Zvtp-32">
          <mxGeometry y="60" width="140" height="30" as="geometry" />
        </mxCell>
        <mxCell id="u7hhSnUpqo7W0qD7Zvtp-35" value="Item 3" style="text;strokeColor=none;fillColor=none;align=left;verticalAlign=middle;spacingLeft=4;spacingRight=4;overflow=hidden;points=[[0,0.5],[1,0.5]];portConstraint=eastwest;rotatable=0;whiteSpace=wrap;html=1;" vertex="1" parent="u7hhSnUpqo7W0qD7Zvtp-32">
          <mxGeometry y="90" width="140" height="30" as="geometry" />
        </mxCell>
        <mxCell id="u7hhSnUpqo7W0qD7Zvtp-4" value="Cours" style="swimlane;fontStyle=0;childLayout=stackLayout;horizontal=1;startSize=30;horizontalStack=0;resizeParent=1;resizeParentMax=0;resizeLast=0;collapsible=1;marginBottom=0;whiteSpace=wrap;html=1;" vertex="1" parent="u7hhSnUpqo7W0qD7Zvtp-3">
          <mxGeometry x="1400" y="80" width="140" height="120" as="geometry" />
        </mxCell>
        <mxCell id="u7hhSnUpqo7W0qD7Zvtp-5" value="Item 1" style="text;strokeColor=none;fillColor=none;align=left;verticalAlign=middle;spacingLeft=4;spacingRight=4;overflow=hidden;points=[[0,0.5],[1,0.5]];portConstraint=eastwest;rotatable=0;whiteSpace=wrap;html=1;" vertex="1" parent="u7hhSnUpqo7W0qD7Zvtp-4">
          <mxGeometry y="30" width="140" height="30" as="geometry" />
        </mxCell>
        <mxCell id="u7hhSnUpqo7W0qD7Zvtp-6" value="Item 2" style="text;strokeColor=none;fillColor=none;align=left;verticalAlign=middle;spacingLeft=4;spacingRight=4;overflow=hidden;points=[[0,0.5],[1,0.5]];portConstraint=eastwest;rotatable=0;whiteSpace=wrap;html=1;" vertex="1" parent="u7hhSnUpqo7W0qD7Zvtp-4">
          <mxGeometry y="60" width="140" height="30" as="geometry" />
        </mxCell>
        <mxCell id="u7hhSnUpqo7W0qD7Zvtp-7" value="Item 3" style="text;strokeColor=none;fillColor=none;align=left;verticalAlign=middle;spacingLeft=4;spacingRight=4;overflow=hidden;points=[[0,0.5],[1,0.5]];portConstraint=eastwest;rotatable=0;whiteSpace=wrap;html=1;" vertex="1" parent="u7hhSnUpqo7W0qD7Zvtp-4">
          <mxGeometry y="90" width="140" height="30" as="geometry" />
        </mxCell>
        <mxCell id="u7hhSnUpqo7W0qD7Zvtp-8" value="Classe" style="swimlane;fontStyle=0;childLayout=stackLayout;horizontal=1;startSize=30;horizontalStack=0;resizeParent=1;resizeParentMax=0;resizeLast=0;collapsible=1;marginBottom=0;whiteSpace=wrap;html=1;" vertex="1" parent="u7hhSnUpqo7W0qD7Zvtp-3">
          <mxGeometry x="1400" y="480" width="140" height="120" as="geometry" />
        </mxCell>
        <mxCell id="u7hhSnUpqo7W0qD7Zvtp-9" value="Item 1" style="text;strokeColor=none;fillColor=none;align=left;verticalAlign=middle;spacingLeft=4;spacingRight=4;overflow=hidden;points=[[0,0.5],[1,0.5]];portConstraint=eastwest;rotatable=0;whiteSpace=wrap;html=1;" vertex="1" parent="u7hhSnUpqo7W0qD7Zvtp-8">
          <mxGeometry y="30" width="140" height="30" as="geometry" />
        </mxCell>
        <mxCell id="u7hhSnUpqo7W0qD7Zvtp-10" value="Item 2" style="text;strokeColor=none;fillColor=none;align=left;verticalAlign=middle;spacingLeft=4;spacingRight=4;overflow=hidden;points=[[0,0.5],[1,0.5]];portConstraint=eastwest;rotatable=0;whiteSpace=wrap;html=1;" vertex="1" parent="u7hhSnUpqo7W0qD7Zvtp-8">
          <mxGeometry y="60" width="140" height="30" as="geometry" />
        </mxCell>
        <mxCell id="u7hhSnUpqo7W0qD7Zvtp-11" value="Item 3" style="text;strokeColor=none;fillColor=none;align=left;verticalAlign=middle;spacingLeft=4;spacingRight=4;overflow=hidden;points=[[0,0.5],[1,0.5]];portConstraint=eastwest;rotatable=0;whiteSpace=wrap;html=1;" vertex="1" parent="u7hhSnUpqo7W0qD7Zvtp-8">
          <mxGeometry y="90" width="140" height="30" as="geometry" />
        </mxCell>
        <mxCell id="u7hhSnUpqo7W0qD7Zvtp-12" value="Etudiant" style="swimlane;fontStyle=0;childLayout=stackLayout;horizontal=1;startSize=30;horizontalStack=0;resizeParent=1;resizeParentMax=0;resizeLast=0;collapsible=1;marginBottom=0;whiteSpace=wrap;html=1;" vertex="1" parent="u7hhSnUpqo7W0qD7Zvtp-3">
          <mxGeometry x="1000" y="480" width="140" height="120" as="geometry" />
        </mxCell>
        <mxCell id="u7hhSnUpqo7W0qD7Zvtp-64" style="edgeStyle=orthogonalEdgeStyle;rounded=0;orthogonalLoop=1;jettySize=auto;html=1;strokeColor=default;startArrow=none;startFill=0;endArrow=none;endFill=0;" edge="1" parent="u7hhSnUpqo7W0qD7Zvtp-12" source="u7hhSnUpqo7W0qD7Zvtp-13" target="u7hhSnUpqo7W0qD7Zvtp-12">
          <mxGeometry relative="1" as="geometry">
            <Array as="points">
              <mxPoint x="-20" y="45" />
              <mxPoint x="-20" y="170" />
              <mxPoint x="160" y="170" />
              <mxPoint x="160" y="-20" />
              <mxPoint x="70" y="-20" />
            </Array>
          </mxGeometry>
        </mxCell>
        <mxCell id="u7hhSnUpqo7W0qD7Zvtp-65" value="Discuter" style="edgeLabel;html=1;align=center;verticalAlign=middle;resizable=0;points=[];" vertex="1" connectable="0" parent="u7hhSnUpqo7W0qD7Zvtp-64">
          <mxGeometry x="-0.4208" y="-2" relative="1" as="geometry">
            <mxPoint x="-1" as="offset" />
          </mxGeometry>
        </mxCell>
        <mxCell id="u7hhSnUpqo7W0qD7Zvtp-13" value="Item 1" style="text;strokeColor=none;fillColor=none;align=left;verticalAlign=middle;spacingLeft=4;spacingRight=4;overflow=hidden;points=[[0,0.5],[1,0.5]];portConstraint=eastwest;rotatable=0;whiteSpace=wrap;html=1;" vertex="1" parent="u7hhSnUpqo7W0qD7Zvtp-12">
          <mxGeometry y="30" width="140" height="30" as="geometry" />
        </mxCell>
        <mxCell id="u7hhSnUpqo7W0qD7Zvtp-14" value="Item 2" style="text;strokeColor=none;fillColor=none;align=left;verticalAlign=middle;spacingLeft=4;spacingRight=4;overflow=hidden;points=[[0,0.5],[1,0.5]];portConstraint=eastwest;rotatable=0;whiteSpace=wrap;html=1;" vertex="1" parent="u7hhSnUpqo7W0qD7Zvtp-12">
          <mxGeometry y="60" width="140" height="30" as="geometry" />
        </mxCell>
        <mxCell id="u7hhSnUpqo7W0qD7Zvtp-15" value="Item 3" style="text;strokeColor=none;fillColor=none;align=left;verticalAlign=middle;spacingLeft=4;spacingRight=4;overflow=hidden;points=[[0,0.5],[1,0.5]];portConstraint=eastwest;rotatable=0;whiteSpace=wrap;html=1;" vertex="1" parent="u7hhSnUpqo7W0qD7Zvtp-12">
          <mxGeometry y="90" width="140" height="30" as="geometry" />
        </mxCell>
        <mxCell id="u7hhSnUpqo7W0qD7Zvtp-16" value="Professeur" style="swimlane;fontStyle=0;childLayout=stackLayout;horizontal=1;startSize=30;horizontalStack=0;resizeParent=1;resizeParentMax=0;resizeLast=0;collapsible=1;marginBottom=0;whiteSpace=wrap;html=1;" vertex="1" parent="u7hhSnUpqo7W0qD7Zvtp-3">
          <mxGeometry x="1000" y="80" width="140" height="120" as="geometry" />
        </mxCell>
        <mxCell id="u7hhSnUpqo7W0qD7Zvtp-17" value="Item 1" style="text;strokeColor=none;fillColor=none;align=left;verticalAlign=middle;spacingLeft=4;spacingRight=4;overflow=hidden;points=[[0,0.5],[1,0.5]];portConstraint=eastwest;rotatable=0;whiteSpace=wrap;html=1;" vertex="1" parent="u7hhSnUpqo7W0qD7Zvtp-16">
          <mxGeometry y="30" width="140" height="30" as="geometry" />
        </mxCell>
        <mxCell id="u7hhSnUpqo7W0qD7Zvtp-18" value="Item 2" style="text;strokeColor=none;fillColor=none;align=left;verticalAlign=middle;spacingLeft=4;spacingRight=4;overflow=hidden;points=[[0,0.5],[1,0.5]];portConstraint=eastwest;rotatable=0;whiteSpace=wrap;html=1;" vertex="1" parent="u7hhSnUpqo7W0qD7Zvtp-16">
          <mxGeometry y="60" width="140" height="30" as="geometry" />
        </mxCell>
        <mxCell id="u7hhSnUpqo7W0qD7Zvtp-19" value="Item 3" style="text;strokeColor=none;fillColor=none;align=left;verticalAlign=middle;spacingLeft=4;spacingRight=4;overflow=hidden;points=[[0,0.5],[1,0.5]];portConstraint=eastwest;rotatable=0;whiteSpace=wrap;html=1;" vertex="1" parent="u7hhSnUpqo7W0qD7Zvtp-16">
          <mxGeometry y="90" width="140" height="30" as="geometry" />
        </mxCell>
        <mxCell id="u7hhSnUpqo7W0qD7Zvtp-36" style="edgeStyle=orthogonalEdgeStyle;rounded=0;orthogonalLoop=1;jettySize=auto;html=1;endArrow=none;endFill=0;strokeColor=default;startArrow=none;startFill=0;" edge="1" parent="u7hhSnUpqo7W0qD7Zvtp-3" source="u7hhSnUpqo7W0qD7Zvtp-24" target="u7hhSnUpqo7W0qD7Zvtp-20">
          <mxGeometry relative="1" as="geometry">
            <Array as="points">
              <mxPoint x="360" y="100" />
            </Array>
          </mxGeometry>
        </mxCell>
        <mxCell id="u7hhSnUpqo7W0qD7Zvtp-45" value="Compose" style="edgeLabel;html=1;align=center;verticalAlign=middle;resizable=0;points=[];" vertex="1" connectable="0" parent="u7hhSnUpqo7W0qD7Zvtp-36">
          <mxGeometry x="-0.1667" y="2" relative="1" as="geometry">
            <mxPoint as="offset" />
          </mxGeometry>
        </mxCell>
        <mxCell id="u7hhSnUpqo7W0qD7Zvtp-24" value="Trajet" style="swimlane;fontStyle=0;childLayout=stackLayout;horizontal=1;startSize=30;horizontalStack=0;resizeParent=1;resizeParentMax=0;resizeLast=0;collapsible=1;marginBottom=0;whiteSpace=wrap;html=1;" vertex="1" parent="u7hhSnUpqo7W0qD7Zvtp-3">
          <mxGeometry x="320" y="280" width="140" height="120" as="geometry" />
        </mxCell>
        <mxCell id="u7hhSnUpqo7W0qD7Zvtp-25" value="Item 1" style="text;strokeColor=none;fillColor=none;align=left;verticalAlign=middle;spacingLeft=4;spacingRight=4;overflow=hidden;points=[[0,0.5],[1,0.5]];portConstraint=eastwest;rotatable=0;whiteSpace=wrap;html=1;" vertex="1" parent="u7hhSnUpqo7W0qD7Zvtp-24">
          <mxGeometry y="30" width="140" height="30" as="geometry" />
        </mxCell>
        <mxCell id="u7hhSnUpqo7W0qD7Zvtp-26" value="Item 2" style="text;strokeColor=none;fillColor=none;align=left;verticalAlign=middle;spacingLeft=4;spacingRight=4;overflow=hidden;points=[[0,0.5],[1,0.5]];portConstraint=eastwest;rotatable=0;whiteSpace=wrap;html=1;" vertex="1" parent="u7hhSnUpqo7W0qD7Zvtp-24">
          <mxGeometry y="60" width="140" height="30" as="geometry" />
        </mxCell>
        <mxCell id="u7hhSnUpqo7W0qD7Zvtp-27" value="Item 3" style="text;strokeColor=none;fillColor=none;align=left;verticalAlign=middle;spacingLeft=4;spacingRight=4;overflow=hidden;points=[[0,0.5],[1,0.5]];portConstraint=eastwest;rotatable=0;whiteSpace=wrap;html=1;" vertex="1" parent="u7hhSnUpqo7W0qD7Zvtp-24">
          <mxGeometry y="90" width="140" height="30" as="geometry" />
        </mxCell>
        <mxCell id="u7hhSnUpqo7W0qD7Zvtp-38" style="rounded=0;orthogonalLoop=1;jettySize=auto;html=1;edgeStyle=orthogonalEdgeStyle;endArrow=none;endFill=0;exitX=0.001;exitY=0.154;exitDx=0;exitDy=0;exitPerimeter=0;" edge="1" parent="u7hhSnUpqo7W0qD7Zvtp-3" source="u7hhSnUpqo7W0qD7Zvtp-16" target="u7hhSnUpqo7W0qD7Zvtp-24">
          <mxGeometry relative="1" as="geometry">
            <Array as="points">
              <mxPoint x="400" y="100" />
            </Array>
          </mxGeometry>
        </mxCell>
        <mxCell id="u7hhSnUpqo7W0qD7Zvtp-47" value="Poceder" style="edgeLabel;html=1;align=center;verticalAlign=middle;resizable=0;points=[];" vertex="1" connectable="0" parent="u7hhSnUpqo7W0qD7Zvtp-38">
          <mxGeometry x="-0.3698" y="1" relative="1" as="geometry">
            <mxPoint x="-1" as="offset" />
          </mxGeometry>
        </mxCell>
        <mxCell id="u7hhSnUpqo7W0qD7Zvtp-39" style="edgeStyle=orthogonalEdgeStyle;rounded=0;orthogonalLoop=1;jettySize=auto;html=1;endArrow=none;endFill=0;" edge="1" parent="u7hhSnUpqo7W0qD7Zvtp-3" source="u7hhSnUpqo7W0qD7Zvtp-12" target="u7hhSnUpqo7W0qD7Zvtp-24">
          <mxGeometry relative="1" as="geometry">
            <Array as="points">
              <mxPoint x="380" y="500" />
            </Array>
          </mxGeometry>
        </mxCell>
        <mxCell id="u7hhSnUpqo7W0qD7Zvtp-48" value="Poceder" style="edgeLabel;html=1;align=center;verticalAlign=middle;resizable=0;points=[];" vertex="1" connectable="0" parent="u7hhSnUpqo7W0qD7Zvtp-39">
          <mxGeometry x="-0.0183" y="3" relative="1" as="geometry">
            <mxPoint x="-1" as="offset" />
          </mxGeometry>
        </mxCell>
        <mxCell id="u7hhSnUpqo7W0qD7Zvtp-40" style="edgeStyle=orthogonalEdgeStyle;rounded=0;orthogonalLoop=1;jettySize=auto;html=1;strokeColor=default;startArrow=none;startFill=0;endArrow=none;endFill=0;" edge="1" parent="u7hhSnUpqo7W0qD7Zvtp-3" source="u7hhSnUpqo7W0qD7Zvtp-16" target="u7hhSnUpqo7W0qD7Zvtp-4">
          <mxGeometry relative="1" as="geometry">
            <Array as="points">
              <mxPoint x="1270" y="100" />
              <mxPoint x="1270" y="100" />
            </Array>
          </mxGeometry>
        </mxCell>
        <mxCell id="u7hhSnUpqo7W0qD7Zvtp-50" value="Dispancer" style="edgeLabel;html=1;align=center;verticalAlign=middle;resizable=0;points=[];" vertex="1" connectable="0" parent="u7hhSnUpqo7W0qD7Zvtp-40">
          <mxGeometry x="-0.3513" y="-2" relative="1" as="geometry">
            <mxPoint x="-1" as="offset" />
          </mxGeometry>
        </mxCell>
        <mxCell id="u7hhSnUpqo7W0qD7Zvtp-41" style="edgeStyle=orthogonalEdgeStyle;rounded=0;orthogonalLoop=1;jettySize=auto;html=1;strokeColor=default;startArrow=none;startFill=0;endArrow=none;endFill=0;" edge="1" parent="u7hhSnUpqo7W0qD7Zvtp-3" source="u7hhSnUpqo7W0qD7Zvtp-7" target="u7hhSnUpqo7W0qD7Zvtp-8">
          <mxGeometry relative="1" as="geometry">
            <Array as="points">
              <mxPoint x="1470" y="260" />
              <mxPoint x="1470" y="260" />
            </Array>
          </mxGeometry>
        </mxCell>
        <mxCell id="u7hhSnUpqo7W0qD7Zvtp-49" value="Derouer" style="edgeLabel;html=1;align=center;verticalAlign=middle;resizable=0;points=[];" vertex="1" connectable="0" parent="u7hhSnUpqo7W0qD7Zvtp-41">
          <mxGeometry x="-0.2857" y="1" relative="1" as="geometry">
            <mxPoint as="offset" />
          </mxGeometry>
        </mxCell>
        <mxCell id="u7hhSnUpqo7W0qD7Zvtp-42" style="edgeStyle=orthogonalEdgeStyle;rounded=0;orthogonalLoop=1;jettySize=auto;html=1;strokeColor=default;startArrow=none;startFill=0;endArrow=none;endFill=0;" edge="1" parent="u7hhSnUpqo7W0qD7Zvtp-3" source="u7hhSnUpqo7W0qD7Zvtp-12" target="u7hhSnUpqo7W0qD7Zvtp-8">
          <mxGeometry relative="1" as="geometry">
            <Array as="points">
              <mxPoint x="1280" y="510" />
              <mxPoint x="1280" y="510" />
            </Array>
          </mxGeometry>
        </mxCell>
        <mxCell id="u7hhSnUpqo7W0qD7Zvtp-55" value="Etre" style="edgeLabel;html=1;align=center;verticalAlign=middle;resizable=0;points=[];" vertex="1" connectable="0" parent="u7hhSnUpqo7W0qD7Zvtp-42">
          <mxGeometry x="-0.3513" y="-5" relative="1" as="geometry">
            <mxPoint x="-1" as="offset" />
          </mxGeometry>
        </mxCell>
        <mxCell id="u7hhSnUpqo7W0qD7Zvtp-60" style="edgeStyle=orthogonalEdgeStyle;rounded=0;orthogonalLoop=1;jettySize=auto;html=1;entryX=0.5;entryY=0;entryDx=0;entryDy=0;strokeColor=default;startArrow=none;startFill=0;endArrow=none;endFill=0;" edge="1" parent="u7hhSnUpqo7W0qD7Zvtp-3" source="u7hhSnUpqo7W0qD7Zvtp-16" target="u7hhSnUpqo7W0qD7Zvtp-12">
          <mxGeometry relative="1" as="geometry">
            <Array as="points">
              <mxPoint x="1080" y="480" />
            </Array>
          </mxGeometry>
        </mxCell>
        <mxCell id="u7hhSnUpqo7W0qD7Zvtp-61" value="Discuter" style="edgeLabel;html=1;align=center;verticalAlign=middle;resizable=0;points=[];" vertex="1" connectable="0" parent="u7hhSnUpqo7W0qD7Zvtp-60">
          <mxGeometry x="-0.2759" y="-2" relative="1" as="geometry">
            <mxPoint as="offset" />
          </mxGeometry>
        </mxCell>
        <mxCell id="u7hhSnUpqo7W0qD7Zvtp-62" style="edgeStyle=orthogonalEdgeStyle;rounded=0;orthogonalLoop=1;jettySize=auto;html=1;strokeColor=default;startArrow=none;startFill=0;endArrow=none;endFill=0;" edge="1" parent="u7hhSnUpqo7W0qD7Zvtp-3" source="u7hhSnUpqo7W0qD7Zvtp-16" target="u7hhSnUpqo7W0qD7Zvtp-8">
          <mxGeometry relative="1" as="geometry">
            <Array as="points">
              <mxPoint x="1260" y="140" />
              <mxPoint x="1260" y="490" />
            </Array>
          </mxGeometry>
        </mxCell>
        <mxCell id="u7hhSnUpqo7W0qD7Zvtp-63" value="Discuter" style="edgeLabel;html=1;align=center;verticalAlign=middle;resizable=0;points=[];" vertex="1" connectable="0" parent="u7hhSnUpqo7W0qD7Zvtp-62">
          <mxGeometry x="0.0534" y="-2" relative="1" as="geometry">
            <mxPoint as="offset" />
          </mxGeometry>
        </mxCell>
      </root>
    </mxGraphModel>
  </diagram>
</mxfile>
